<?xml version="1.0" encoding="UTF-8" standalone="no"?>
<!-- Created with Inkscape (http://www.inkscape.org/) -->

<svg
   width="297.0mm"
   height="210.0mm"
   viewBox="0 0 297.0 210.0"
   version="1.1"
   id="SVGRoot"
   sodipodi:docname="drawing.svg"
   inkscape:version="1.2.1 (9c6d41e410, 2022-07-14)"
   xmlns:inkscape="http://www.inkscape.org/namespaces/inkscape"
   xmlns:sodipodi="http://sodipodi.sourceforge.net/DTD/sodipodi-0.dtd"
   xmlns:xlink="http://www.w3.org/1999/xlink"
   xmlns="http://www.w3.org/2000/svg"
   xmlns:svg="http://www.w3.org/2000/svg">
  <sodipodi:namedview
     id="namedview8325"
     pagecolor="#ffffff"
     bordercolor="#000000"
     borderopacity="0.25"
     inkscape:showpageshadow="2"
     inkscape:pageopacity="0.0"
     inkscape:pagecheckerboard="0"
     inkscape:deskcolor="#d1d1d1"
     inkscape:document-units="mm"
     showgrid="false"
     inkscape:zoom="0.45254834"
     inkscape:cx="608.77475"
     inkscape:cy="418.7398"
     inkscape:window-width="1920"
     inkscape:window-height="1003"
     inkscape:window-x="0"
     inkscape:window-y="0"
     inkscape:window-maximized="1"
     inkscape:current-layer="layer1"
     showguides="true" />
  <defs
     id="defs8320">
    <inkscape:path-effect
       effect="bspline"
       id="path-effect11648"
       is_visible="true"
       lpeversion="1"
       weight="33.333333"
       steps="2"
       helper_size="0"
       apply_no_weight="true"
       apply_with_weight="true"
       only_selected="false" />
    <inkscape:path-effect
       effect="bspline"
       id="path-effect10732"
       is_visible="true"
       lpeversion="1"
       weight="33.333333"
       steps="2"
       helper_size="0"
       apply_no_weight="true"
       apply_with_weight="true"
       only_selected="false" />
    <linearGradient
       inkscape:collect="always"
       id="linearGradient8870">
      <stop
         style="stop-color:#ff616c;stop-opacity:1;"
         offset="0"
         id="stop8866" />
      <stop
         style="stop-color:#3248cb;stop-opacity:1;"
         offset="1"
         id="stop8868" />
    </linearGradient>
    <linearGradient
       inkscape:collect="always"
       xlink:href="#linearGradient8870"
       id="linearGradient8872"
       x1="59.335665"
       y1="101.1665"
       x2="226.56476"
       y2="101.1665"
       gradientUnits="userSpaceOnUse"
       gradientTransform="translate(-161.26888,26.450359)" />
  </defs>
  <g
     inkscape:label="Layer 1"
     inkscape:groupmode="layer"
     id="layer1">
    <path
       d="m 65.278497,109.0062 c -0.0731,-0.29089 -0.32508,-0.41119 -0.61868,-0.55137 -0.43217,-0.21023 -0.97649,-0.46806 -1.34318,-1.39495 -0.20916,-0.51829 -0.45107,-0.77616 -0.74216,-0.77616 -0.41455,0 -0.76483,0.54213 -1.10126,1.06306 -0.16631,0.26049 -0.3213,0.50642 -0.46243,0.64923 -0.63251,0.62807 -1.27889,1.21379 -1.75519,1.21379 -0.44353,0 -0.81019,-0.53021 -1.19448,-1.72684 -0.78123,-2.46992 -1.93036,-3.69292 -4.24237,-4.49954 -1.55486,-0.54477 -4.28784,-2.7608 -5.43584,-4.191521 l -0.0315,-0.0331 c -0.94879,-0.68754 -1.82578,-1.53377 -2.67879,-2.35223 -0.63252,-0.60692 -1.28397,-1.23495 -1.96183,-1.79823 -0.46872,-0.38476 -1.03069,-0.5778 -1.71363,-0.5778 -0.64638,0 -1.33183,0.16528 -1.98705,0.32527 -0.56197,0.13354 -1.13778,0.27502 -1.67078,0.30543 -0.66026,0.0384 -1.31293,0.041 -1.86229,0.041 h -1.134 c -2.67879,0 -5.07168,0.16263 -7.22478,2.17638 -1.60904,1.50206 -3.51175,3.169391 -5.75841,3.986401 -1.01052,0.36756 -1.8938,1.08422 -2.74682,1.77443 -1.08991,0.88325 -2.1143,1.71757 -3.27724,1.71757 -0.18396,0 -0.37294,-0.0211 -0.55314,-0.0648 -0.1071,-0.0238 -0.20664,-0.0331 -0.2961,-0.0331 -0.91475,0 -1.14536,1.09613 -1.33183,1.97806 -0.10206,0.47998 -0.20664,0.97448 -0.39185,1.18208 -0.13861,0.15734 -0.2961,0.23139 -0.49391,0.23139 -0.39185,0 -0.88076,-0.2909 -1.35451,-0.56856 -0.51913,-0.30544 -1.05588,-0.62144 -1.54353,-0.62144 -0.26586,0 -0.49646,0.0912 -0.69173,0.27899 -0.0227,-0.009 -0.0504,-0.0146 -0.0731,-0.0146 -0.1323,0 -0.19531,0.0978 -0.2394,0.15735 -0.0227,0.0331 -0.0479,0.0621 -0.0756,0.0912 -1.35199,0.34905 -3.9401,0.75236 -5.29713,0.75236 -0.9173,0 -1.55233,-0.44955 -2.16217,-0.88325 -0.50527,-0.35834 -0.97903998,-0.6955 -1.54352998,-0.6955 -2.06263002,0 -6.50547002,-0.9454 -8.00732002,-2.82826 -0.36163,-0.44955 -1.23858,-0.7378 -2.26297,-1.06969 -1.05589,-0.34377 -2.2466,-0.73121 -2.9245,-1.34736 -0.26586,-0.23932 -0.51661,-0.45619 -0.75348,-0.6611 -1.34569,-1.163571 -2.15966,-1.868301 -2.15966,-4.077791 v -0.0741 l -0.14364,-0.15072 h -0.0731 c -0.92863,0 -1.79175,0.30807 -2.70148,0.63335 -0.98533,0.35568 -2.01854,0.71928 -3.14373,0.67566 -2.39404,-0.0952 -2.39404,-0.78144 -2.39404,-1.73212 0,-0.69286 0,-1.55496 -0.90847,-2.29537 l -3.44626,-2.80179 c -0.52794,-0.42706 -0.0844,-1.18207 0.596,-2.20018 0.49392,-0.74044 0.96266,-1.44254 0.70057,-1.93971 -0.58967,-1.24158 -0.38933,-1.93971 -0.17765,-2.68281 0.2142,-0.74309 0.43723,-1.51396 -0.25957,-2.74891 -0.52165,-0.92688 -0.91731,-1.85377 -1.2978,-2.75154 -0.45107,-1.06042 -0.91982,-2.15655 -1.58888,-3.22226 -0.62119,-0.98639 -1.97068,-1.47825 -3.16138,-1.91061 -0.35282,-0.12692 -0.68546,-0.24857 -0.96518,-0.37023 -0.18018,-0.0793 -0.4032,-0.12165 -0.66277,-0.12165 -0.81018,0 -1.85977,0.38476 -2.78588,0.72589 -0.60984,0.22213 -1.18569,0.43235 -1.45909,0.43235 -0.0391,0 -0.0617,-0.002 -0.0681,-0.002 -0.0251,-0.18114 -0.0541,-0.43502 -0.0869,-0.74044 -0.32509,-2.87056 -0.75347,-5.94726 -1.72498,-6.1788 -0.64638,-0.15073 -1.22474,-0.17718 -1.78039,-0.20494 -0.83792,-0.0384 -1.63172,-0.0767 -2.52883,-0.5474 -0.60732,-0.31998 -1.07227,-0.46543 -1.4654,-0.46543 -0.58465,0 -0.91982,0.32924 -1.27513,0.68358 -0.35533,0.34906 -0.7598,0.74573 -1.51579,0.94141 -0.14616,0.0384 -0.29106,0.0568 -0.42588,0.0568 -0.72199,0 -1.16049,-0.54742 -1.39986,-1.01019 -0.28476,-0.55136 -0.4574,-1.29446 -0.4574,-1.98467 v -0.25123 l -0.22806,0.0793 c -0.24571,0.0833 -0.4662,0.22742 -0.68041,0.36756 -0.347762,0.22478 -0.674102,0.43503 -1.117622,0.43503 -0.58969,0 -0.6779,-0.37024 -0.76735,-0.97976 -0.0479,-0.33717 -0.10206,-0.68358 -0.31375,-0.90969 -0.12978,-0.13618 -0.27089,-0.20494 -0.41833,-0.20494 -0.58087,0 -1.02188,0.98639 -1.58637,2.37207 -0.16379,0.40326 -0.34146,0.84358 -0.47754,1.07761 l -0.6741,-0.92952 -0.1134,0.0291 c -2.72038,0.75235 -4.27011,1.38039 -6.81932,3.32934 -0.88076,0.6783 -2.63344,1.80615 -4.45911,1.80615 -0.9488,0 -1.7804,-0.31337 -2.47217,-0.93613 -0.83537,-0.75235 -1.58004,-0.85546 -2.19621,-0.85546 -0.27342,0 -0.54809,0.0238 -0.8127,0.0476 -0.27341,0.0211 -0.55568,0.0475 -0.84169,0.0475 -0.3843,0 -0.71442,-0.041 -1.03827,-0.1362 l -0.72577,-0.20758 2.56539,2.36414 0.0504,0.0331 c 0.59218,0.24329 1.77283,1.43066 1.80055,2.28349 0.0114,0.30808 -0.13861,0.53285 -0.45488,0.68754 -0.27721,0.1309 -3.45757,0.34641 -4.46557,0.34641 h -0.1071 c -0.70059,-0.029 -1.14914,-0.26973 -1.62795,-0.52757 -0.47756,-0.25783 -0.97398,-0.52757 -1.69849,-0.52757 -0.19783,0 -0.4095,0.0211 -0.63,0.0621 -7.18349,1.30636 -7.29058,1.67656 -7.32703,1.79823 -0.15498,0.53284 -0.23688,1.02206 -0.30744,1.45445 -0.18395,1.13449 -0.31878,1.9516 -1.5662,2.87849 -1.23607,0.91761 -1.93665,2.10896 -2.61329,3.26324 -0.66277,1.13448 -1.35199,2.30464 -2.55406,3.19845 -0.75095,0.55666 -1.53595,0.89118 -2.23023,1.18208 -1.809385,0.76688 -3.236925,1.36852 -2.317165,5.22797 0.0958,0.66111 0.0504,1.25347 0.002,1.82467 -0.0907,1.14636 -0.17766,2.22398 0.94501,3.47087 0.56952,0.63335 1.117615,0.92953 1.713615,0.92953 0.43217,0 0.84673,-0.15074 1.28648,-0.30808 0.52165,-0.18908 1.06094,-0.38213 1.73252,-0.38213 0.31879,0 0.6552,0.19305 1.00802,0.39932 0.37549,0.21949 0.76483,0.44427 1.21087,0.50115 0.39817,0.0529 1.00423,-0.2314 1.64559,-0.53286 0.62119,-0.2909 1.26506,-0.59236 1.72117,-0.59236 0.28224,0 0.44855,0.11503 0.53297,0.37288 2.33355,6.924491 7.17703,7.815731 13.31315,8.944931 l 0.17262,0.029 c 0.56449,0.1005 0.90848,0.30147 1.05588,0.6016 0.28225,0.57517 -0.16632,1.54304 -0.63757,2.56511 -0.33644,0.71929 -0.68294,1.46898 -0.81521,2.17375 -0.46872,2.45538 1.44272,2.87057 3.29111,3.26721 1.0811,0.23403 2.1962,0.47334 2.90935,1.13184 1.68843,0.98904 1.67079,1.06306 1.39736,2.24514 -0.0706,0.29617 -0.15499,0.67169 -0.23436,1.13183 -0.50779,3.04774 -1.01937,4.51139 -3.7711,5.73977 -2.17102,0.96788 -2.41042,1.46369 -3.21808,3.10987 -0.10711,0.21949 -0.22554,0.45883 -0.35534,0.72325 -0.74845,1.48617 -1.77787,1.89872 -2.87281,2.33636 -1.04205,0.41783 -2.11683,0.84359 -2.85014,2.26893 -1.52967,2.96707 -0.45991,5.98314 0.57584,8.90262 0.0932,0.26708 0.18396,0.52757 0.26838,0.75764 l 0.1071,0.58312 c 0.26208,1.4637 0.66026,3.66651 1.11258,4.65559 0.46244,1.01282 1.02188,2.43421 1.0584,3.4536 0.0278,0.74045 -0.0655,1.43991 -0.1575,2.1182 -0.14994,1.11066 -0.30492,2.25706 0.0794,3.62287 0.17262,0.6069 0.3843,1.06306 0.567,1.46897 0.39817,0.85018 0.68042,1.46898 0.25074,2.93799 -0.0907,0.31072 -0.19152,0.6016 -0.29358,0.8793 -0.31375,0.87397 -0.60984,1.70037 -0.35282,2.79254 0.11339,0.46806 0.29611,0.89777 0.47378,1.30636 0.14616,0.33453 0.28728,0.6611 0.38933,1.00755 0.1071,0.36492 0.0277,0.78803 -0.0454,1.19663 -0.1386,0.74573 -0.29105,1.59063 0.74216,2.07589 0.4851,0.23138 0.94879,0.40591 1.39735,0.57781 0.96769,0.37023 1.87993,0.72324 2.82746,1.52188 l 0.0592,0.0357 c 0.48511,0.14544 0.83035,0.43898 1.197,0.75764 0.189,0.15734 0.3843,0.32262 0.60732,0.47997 0.56197,0.39405 1.17181,0.6783 1.75898,0.95332 0.49391,0.23139 1.008,0.46807 1.47924,0.76952 0.29358,0.18909 0.58968,0.37025 0.88328,0.55137 0.90595,0.55665 1.76402,1.08158 2.58805,1.74136 0.29106,0.23668 0.53678,0.52098 0.77364,0.79996 0.54181,0.62543 1.10126,1.27989 2.17101,1.27989 l 1.18316,-0.53948 c 0.53929,0.0978 1.08991,-0.36492 1.66195,-0.85547 0.53297,-0.45618 1.08613,-0.92952 1.64308,-0.95992 h 0.0617 c 0.1953,0 0.33642,0.0529 0.42839,0.15734 0.23185,0.2552 0.19531,0.85019 0.1638,1.37117 -0.0139,0.26708 -0.0315,0.51565 -0.0163,0.74572 0.0681,1.13448 0.71696,6.11278 1.13778,7.02908 0.16381,0.3464 0.49646,0.52757 0.99666,0.52757 0.51029,0 1.120172,-0.17454 1.709852,-0.34113 0.61867,-0.18115 1.22222,-0.33453 1.42508,-0.23668 0.23436,0.10975 0.39185,0.33452 0.55568,0.5778 0.2394,0.34641 0.5103,0.73516 1.04707,0.73516 0.10206,0 0.20664,-0.0119 0.31627,-0.041 0.47123,-0.11503 0.79885,-0.45618 1.08362,-0.75236 0.3024,-0.32262 0.55062,-0.58971 0.92611,-0.55137 0.49391,0.0529 4.71104,3.59916 5.26424,4.31575 l 0.0655,0.0793 3.7082,-0.72853 c 0.0454,0.006 0.0932,0.006 0.13608,0.006 0.48259,0 0.9173,-0.18908 1.33812,-0.37552 0.2205,-0.0912 0.42336,-0.18643 0.63251,-0.24858 l 0.34776,-0.0978 c 1.04958,-0.30147 2.35623,-0.68095 3.15886,-1.46371 0.45108,-0.43899 0.87444,-0.92689 1.28396,-1.38966 0.27973,-0.31733 0.55569,-0.63071 0.83287,-0.92161 l 1.25622,-2.58626 c 0.20664,-0.28429 0.38933,-0.53286 0.55313,-0.75765 1.4616,-1.98995 1.47044,-2.0944 0.26209,-3.76435 -0.28477,-0.39403 -0.6401,-0.87929 -1.0584,-1.52188 -0.66027,-0.99563 -1.06975,-1.74799 -0.93115,-2.16843 0.14617,-0.43236 0.88328,-0.68094 2.28314,-1.11597 0.5481,-0.17453 1.13401,-0.13354 1.65943,-0.0528 0.25704,0.0357 0.50274,0.0688 0.76231,0.0688 0.58465,0 1.07859,-0.18908 1.60905,-0.61352 0.33894,-0.27238 0.66906,-0.54476 0.9992,-0.80919 1.69346,-1.38304 3.29112,-2.6894 5.25811,-3.69699 0.84421,-0.4297 1.45908,-0.36493 2.28313,-0.18643 0.24319,0.0595 0.50779,0.11503 0.80138,0.16263 0.59219,0.0859 1.10127,-0.16924 1.58888,-0.41783 0.42086,-0.20758 0.80767,-0.41119 1.24491,-0.37551 0.33262,0.43898 0.62371,0.84359 0.88327,1.2019 1.5725,2.18035 2.23024,3.09532 5.84259,3.45362 0.2936,0.55136 0.4914,0.98903 0.64891,1.34204 0.60733,1.34736 0.76735,1.58402 3.1072,2.05209 0.47123,0.0912 0.68041,0.42311 0.92611002,0.79995 0.20286,0.32263 0.42085,0.66111 0.81902,0.84359 0.37294,0.16924 1.21966998,-0.11503 2.14200998,-0.44955 0.6779,-0.24329 1.37719,-0.49186 1.77788,-0.49186 h 0.0454 l 0.0454,-0.0238 c 0.4662,-0.29617 0.94879,-0.6307 1.4616,-0.98903 1.2159,-0.84358 2.46709,-1.71228 3.68044,-2.07061 0.30997,0.0741 2.27182,0.92689 2.52632,1.12785 0.14615,0.38212 0.18648,0.69285 0.23184,0.98904 0.068,0.52096 0.14112,1.01282 0.68922,1.76516 0.12726,0.17452 0.25704,0.33451 0.3843,0.49185 0.37802,0.47998 0.70561,0.89118 0.86941,1.49281 0.79635,2.87584 2.20756,3.45902 4.01301,1.65014 1.37216,-1.37776 2.60192,-1.77179 3.082,-0.98904 0.39565,0.63731 0.28225,1.86829 -0.29359,3.21697 -0.0542,0.12165 -0.11339,0.2552 -0.17766,0.39405 -0.37294,0.82638 -0.88579,1.96086 -0.65773,2.81633 0.0617,0.23668 0.26837,0.52097 0.87192,0.52097 0.78499,0 1.95302,-0.45619 2.65359,-0.72854 0.21169,-0.0793 0.37802,-0.14545 0.46872,-0.17453 l 0.12979,-0.0357 -0.009,-0.15205 c 0,-0.51565 0.35786,-0.81447 0.74216,-1.12785 0.33895,-0.29088 0.68922,-0.57119 0.75348,-1.03134 0.378,-0.0859 0.77112,-0.14545 1.15416,-0.18908 1.14536,-0.15734 2.33355,-0.31072 3.12987,-1.42803 0.0365,-0.0529 0.0794,-0.15072 0.17514,-0.35831 0.0617,-0.13355 0.16884,-0.37024 0.25073,-0.52758 0.0681,0.39932 0.15499,1.05779 0.24822,1.79163 0.27973,2.18563 0.49898,3.75521 0.77872,4.07779 l 0.17765,0.19569 c 1.49564,1.71756 2.24659,2.57967 3.77883,2.57967 0.52794,0 1.17181,-0.10314 2.03241,-0.32925 1.58888,-0.41783 1.74384,-0.87398 1.90009,-1.71228 0.0794,-0.43899 0.17766,-0.97712 0.64387,-1.69377 0.28225,-0.0741 0.72829,-0.16925 1.28145,-0.29618 2.50364,-0.52757 6.69836,-1.41874 7.27671,-3.29632 0.18648,-0.61878 -0.0278,-1.2852 -0.64009,-1.97806 -1.20207,-1.35924 -5.01877,-6.11278 -3.62368,-10.25116 0.40949,-1.22043 0.41833,-2.10632 0.0164,-2.69468 -0.51913,-0.76953 -1.62543,-0.98903 -3.52304,-0.66642 -0.1953,0.0357 -0.38682,0.0476 -0.56449,0.0476 -1.93035,0 -2.85897,-1.8683 -3.7598,-3.68515 -0.25704,-0.50377 -0.49139,-0.98371 -0.7598,-1.42801 -0.17514,-0.29617 -0.13608,-0.6611 -0.10206,-1.04854 0.0365,-0.37552 0.0731,-0.76952 -0.10458,-1.11597 -0.10458,-0.18908 -0.2205,-0.38741 -0.33895,-0.58312 -0.33011,-0.54476 -0.67158,-1.09877 -0.67158,-1.71756 0,-1.01283 0.61236,-1.08685 1.47673,-1.08685 h 0.2142 c 0.5733,0 1.06975,-0.0357 1.33812,-0.39932 0.20287,-0.27899 0.23185,-0.69946 0.0907,-1.28521 0.35533,-0.77616 -0.71696,-2.45274 -1.75898,-4.07237 -0.64009,-0.99564 -1.29779,-2.02566 -1.3205,-2.43422 -0.0391,-0.68094 0.0907,-1.18472 0.3843,-1.50997 0.28728,-0.31733 0.73332,-0.47334 1.35702,-0.47334 0.58968,0 1.23607,0.13883 1.79174,0.27899 0.29106,0.0688 0.55569,0.10974 0.81271,0.10974 0.73331,0 1.23606,-0.30146 1.71864,-0.57779 0.4662,-0.27238 0.90344,-0.53286 1.56369,-0.56593 0.68294,-0.0357 1.1882,0.029 1.61408,0.0793 0.24571,0.0357 0.45991,0.0621 0.65519,0.0621 0.84673,0 1.24994,-0.52756 1.97319,-2.56774 0.24318,-0.68095 0.58465,-1.35924 0.90846,-2.02038 0.8606,-1.71228 1.74765,-3.47731 0.89209,-5.3522 -0.10207,-0.23139 -0.19152,-0.42311 -0.26839,-0.57781 -0.12725,-0.27899 -0.23939,-0.51565 -0.2709,-0.62542 0.0277,-0.006 0.068,-0.006 0.13231,-0.006 h 0.18395 c 0.087,0.006 0.18901,0.006 0.30744,0.006 0.29359,0 0.7598,-0.012 1.37719,-0.12165 0.46243,-0.0793 0.82657,-0.12693 1.12017,-0.15734 1.36083,-0.16264 1.37718,-0.27899 1.70733,-2.10632 l 0.068,-0.35832 c 0.0907,-0.2909 1.97067,-2.16843 2.33356,-2.42231 0.60983,-0.42707 1.39735,-0.39403 2.10295,-0.38212 0.79003,0.0146 1.43389,0.002 1.81821,-0.40328 0.2394,-0.25519 0.35533,-0.63334 0.34774,-1.15164 v -0.0529 l -0.0277,-0.0384 c -0.4284,-0.72853 0.61235,-2.5228 1.37467,-3.83575 0.41201,-0.71666 0.77615,-1.33809 0.91224,-1.77179 0.30996,-0.97184 0.39818,-1.97539 0.47756,-2.94724 0.0731,-0.90045 0.14616,-1.75327 0.38933,-2.57042 0.1134,-0.39668 0.3755,-0.70209 0.6489,-1.02739 0.33895,-0.39135 0.72577,-0.84093 0.85808,-1.52188 0.10711,-0.52756 0.13609,-1.01019 0.16129,-1.47561 0.0479,-0.86737 0.0844,-1.62369 0.63251,-2.42893 0.87825,-1.27859 1.14284,-1.8683 1.04708,-2.25574 z"
       id="path40"
       style="fill:url(#linearGradient8872);fill-opacity:1;stroke:#fcfff8;stroke-width:0;stroke-linecap:round;stroke-linejoin:round;stroke-dasharray:none;stroke-opacity:1" />
    <path
       style="fill:none;fill-opacity:1;fill-rule:evenodd;stroke:#4400f8;stroke-width:3.5;stroke-linecap:round;stroke-linejoin:round;stroke-dasharray:none;stroke-opacity:1"
       d="m 188.47086,79.283077 c 28.5807,28.040163 57.16065,56.079593 80.37275,57.078923 23.2121,0.99933 41.05495,-25.04122 45.57656,-51.161983 4.52161,-26.120764 -4.27824,-52.320387 -26.67053,-63.758849 -22.39229,-11.438463 -58.37547,-8.115003 -80.14593,8.413228 -21.77047,16.528231 -29.32692,46.259723 -30.31066,79.953874 -0.98374,33.69414 4.60505,71.34877 27.55887,89.57633 22.95382,18.22755 63.27013,17.02771 87.55613,2.83052 24.28601,-14.19718 32.53955,-41.39081 40.79333,-68.58522"
       id="path11646"
       inkscape:path-effect="#path-effect11648"
       inkscape:original-d="m 188.47086,79.283077 c 28.5807,28.040163 57.16065,56.079593 85.74135,84.119743 17.8438,-26.04128 35.68666,-52.08183 53.52965,-78.12323 -8.79998,-26.200372 -17.59981,-52.4 -26.40007,-78.6004605 -35.98441,3.3238975 -71.96759,6.6473585 -107.95173,9.9705805 -7.55654,29.732987 -15.11299,59.464481 -22.66982,89.19627 5.58923,37.65641 11.17803,75.31104 16.76672,112.96609 40.31879,-1.19964 80.6351,-2.39949 120.9533,-3.59966 8.25411,-27.19438 16.50765,-54.388 24.76112,-81.58251"
       sodipodi:nodetypes="ccccccccc" />
  </g>
</svg>
