<?xml version="1.0" encoding="UTF-8" standalone="no"?>
<!-- Created with Inkscape (http://www.inkscape.org/) -->

<svg
   width="210mm"
   height="297mm"
   viewBox="0 0 210 297"
   version="1.1"
   id="svg5"
   inkscape:version="1.2.1 (9c6d41e410, 2022-07-14)"
   sodipodi:docname="profile_pic.svg"
   xmlns:inkscape="http://www.inkscape.org/namespaces/inkscape"
   xmlns:sodipodi="http://sodipodi.sourceforge.net/DTD/sodipodi-0.dtd"
   xmlns="http://www.w3.org/2000/svg"
   xmlns:svg="http://www.w3.org/2000/svg">
  <sodipodi:namedview
     id="namedview7"
     pagecolor="#ffffff"
     bordercolor="#000000"
     borderopacity="0.25"
     inkscape:showpageshadow="2"
     inkscape:pageopacity="0.0"
     inkscape:pagecheckerboard="0"
     inkscape:deskcolor="#d1d1d1"
     inkscape:document-units="mm"
     showgrid="false"
     inkscape:zoom="0.96630983"
     inkscape:cx="387.55686"
     inkscape:cy="564.51873"
     inkscape:window-width="1920"
     inkscape:window-height="1003"
     inkscape:window-x="0"
     inkscape:window-y="0"
     inkscape:window-maximized="1"
     inkscape:current-layer="layer1" />
  <defs
     id="defs2">
    <inkscape:path-effect
       effect="bspline"
       id="path-effect292"
       is_visible="true"
       lpeversion="1"
       weight="33.333333"
       steps="2"
       helper_size="0"
       apply_no_weight="true"
       apply_with_weight="true"
       only_selected="false" />
    <clipPath
       clipPathUnits="userSpaceOnUse"
       id="clipPath1963">
      <path
         style="opacity:0.832031;fill:#175caa;fill-opacity:0.981527;fill-rule:evenodd;stroke:none;stroke-width:0.937948;stroke-linecap:round;stroke-linejoin:round;stroke-opacity:0.994745"
         id="path1965"
         sodipodi:type="arc"
         sodipodi:cx="83.684418"
         sodipodi:cy="123.95525"
         sodipodi:rx="57.704918"
         sodipodi:ry="51.401333"
         sodipodi:start="0.045278583"
         sodipodi:end="0.04521206"
         sodipodi:arc-type="slice"
         d="M 141.33019,126.28184 A 57.704918,51.401333 0 0 1 81.073472,175.30394 57.704918,51.401333 0 0 1 26.038555,121.63038 57.704918,51.401333 0 0 1 86.293446,72.606486 57.704918,51.401333 0 0 1 141.33037,126.27842 l -57.645952,-2.32317 z" />
    </clipPath>
    <clipPath
       clipPathUnits="userSpaceOnUse"
       id="clipPath1967">
      <path
         style="opacity:0.832031;fill:#175caa;fill-opacity:0.981527;fill-rule:evenodd;stroke:none;stroke-width:0.937948;stroke-linecap:round;stroke-linejoin:round;stroke-opacity:0.994745"
         id="path1969"
         sodipodi:type="arc"
         sodipodi:cx="83.684418"
         sodipodi:cy="123.95525"
         sodipodi:rx="57.704918"
         sodipodi:ry="51.401333"
         sodipodi:start="0.045278583"
         sodipodi:end="0.04521206"
         sodipodi:arc-type="slice"
         d="M 141.33019,126.28184 A 57.704918,51.401333 0 0 1 81.073472,175.30394 57.704918,51.401333 0 0 1 26.038555,121.63038 57.704918,51.401333 0 0 1 86.293446,72.606486 57.704918,51.401333 0 0 1 141.33037,126.27842 l -57.645952,-2.32317 z" />
    </clipPath>
  </defs>
  <g
     inkscape:label="Layer 1"
     inkscape:groupmode="layer"
     id="layer1">
    <g
       id="g2068"
       transform="matrix(1.0250408,0,0,1.0525196,3.685462,3.2675956)">
      <path
         style="opacity:0.832031;fill:#008aaa;fill-opacity:0.981527;fill-rule:evenodd;stroke:none;stroke-width:0.583727;stroke-linecap:round;stroke-linejoin:round;stroke-opacity:0.994745"
         id="path234"
         sodipodi:type="arc"
         sodipodi:cx="83.969116"
         sodipodi:cy="112.63802"
         sodipodi:rx="16.58584"
         sodipodi:ry="21.254509"
         sodipodi:start="0.045278583"
         sodipodi:end="0.030602753"
         sodipodi:open="true"
         sodipodi:arc-type="arc"
         d="M 100.53796,113.60007 A 16.58584,21.254509 0 0 1 83.279185,133.87414 16.58584,21.254509 0 0 1 67.395212,111.83181 16.58584,21.254509 0 0 1 84.53743,91.395995 16.58584,21.254509 0 0 1 100.54719,113.28837"
         clip-path="url(#clipPath1967)"
         transform="translate(12.265742,5.1884472)" />
      <path
         style="opacity:0.832031;fill:#008aaa;fill-opacity:0.981527;fill-rule:evenodd;stroke:none;stroke-width:0.785826;stroke-linecap:round;stroke-linejoin:round;stroke-opacity:0.994745"
         d="m 32.309207,182.56015 c -2.263729,-6.04304 3.245598,-31.98656 10.502494,-45.47515 7.256896,-13.4886 16.260392,-14.52095 23.291608,-10.81528 7.031216,3.70568 12.089426,12.14885 16.531415,13.36185 4.441989,1.213 8.267624,-4.8038 14.93815,-9.88538 6.670526,-5.08158 16.185006,-9.22723 23.875106,3.1478 7.6901,12.37503 13.55492,41.26897 11.8118,51.48584 -1.74312,10.21686 -11.09413,1.7555 -18.96939,-3.59102 -7.87526,-5.34653 -14.27385,-7.57746 -20.267741,-5.45368 -5.993891,2.12377 -11.582088,8.60205 -18.077208,6.91999 -6.49512,-1.68207 -13.89658,-11.52446 -22.616193,-9.51698 -8.719613,2.00748 -18.756311,15.86505 -21.020041,9.82201 z"
         id="path290"
         sodipodi:nodetypes="cccccccccccc"
         clip-path="url(#clipPath1963)"
         transform="translate(12.14809,4.0557806)"
         inkscape:original-d="m 24.536074,202.46099 c 5.509634,-25.94383 11.018962,-51.88735 16.52832,-77.83215 9.004231,-1.03219 18.007727,-2.06455 27.011573,-3.09719 5.058605,8.44372 10.11681,16.88689 15.174929,25.33 3.826056,-6.01693 7.651688,-12.03373 11.477357,-18.0511 9.515257,-4.14569 19.029737,-8.29133 28.544607,-12.43746 5.86537,28.8959 11.73019,57.78984 17.59516,86.68528 -9.35138,-8.46165 -18.70239,-16.92301 -28.05416,-25.38511 -6.39878,-2.23084 -12.79737,-4.46177 -19.196532,-6.69306 -5.588343,6.4789 -11.176544,12.95717 -16.765274,19.43561 -7.401714,-9.84277 -14.803176,-19.68516 -22.205277,-29.52837 -10.036912,13.85835 -20.073608,27.71592 -30.110703,41.57355 z"
         inkscape:path-effect="#path-effect292" />
      <path
         style="opacity:0.832031;fill:#418880;fill-opacity:0.36623;fill-rule:evenodd;stroke:none;stroke-width:0.937948;stroke-linecap:round;stroke-linejoin:round;stroke-opacity:0.994745"
         id="path1753"
         sodipodi:type="arc"
         sodipodi:cx="95.857384"
         sodipodi:cy="128.0741"
         sodipodi:rx="57.704918"
         sodipodi:ry="51.401333"
         sodipodi:start="0.045278583"
         sodipodi:end="0.04521206"
         sodipodi:arc-type="slice"
         d="M 153.50316,130.40068 A 57.704918,51.401333 0 0 1 93.246438,179.42279 57.704918,51.401333 0 0 1 38.211521,125.74922 57.704918,51.401333 0 0 1 98.466412,76.725329 57.704918,51.401333 0 0 1 153.50333,130.39727 L 95.857384,128.0741 Z" />
    </g>
  </g>
</svg>
